<?xml version="1.0" encoding="utf-8"?>
<!-- Generator: Adobe Illustrator 21.0.0, SVG Export Plug-In . SVG Version: 6.00 Build 0)  -->
<svg version="1.1" id="Layer_1" xmlns="http://www.w3.org/2000/svg" xmlns:xlink="http://www.w3.org/1999/xlink" x="0px" y="0px"
	 viewBox="0 0 16 16" style="enable-background:new 0 0 16 16;" xml:space="preserve">
<style type="text/css">
	.st0{fill:#7B9DD0;}
	.st1{fill:#FFFFFF;}
	.st2{fill:#0F1F39;}
</style>
<g>
	<g>
		<path class="st0" d="M12.5,7.8c-0.1-2.2-2-4-4.2-4s-4.1,1.8-4.2,4H12.5z"/>
		<path class="st0" d="M4.1,8.2c0.1,2.2,2,4,4.2,4s4.1-1.8,4.2-4H4.1z"/>
		<rect x="7.6" y="10" class="st1" width="1.5" height="0.2"/>
		<polygon class="st1" points="9.1,5.8 8.4,5.8 8.4,5.1 8.2,5.1 8.2,5.8 7.6,5.8 7.6,5.9 8.2,5.9 8.2,6.6 8.4,6.6 8.4,5.9 9.1,5.9 
					"/>
		<path class="st2" d="M8.1,0c-1,0-1.9,0.2-2.7,0.5c-0.1,0-0.1,0.1-0.1,0.2l0.6,1.4c0,0.1,0,0.2-0.1,0.2C5.2,2.7,4.6,3.1,4.1,3.6
			C4.1,3.6,4,3.6,3.9,3.6L2.8,2.5c-0.1-0.1-0.2-0.1-0.3,0C1.9,3.1,1.4,3.9,1,4.8C1,4.9,1,5,1.1,5l1.4,0.6c0.1,0,0.1,0.1,0.1,0.2
			c-0.2,0.6-0.4,1.3-0.4,2C2.2,7.9,2.1,8,2,8H0.5C0.4,8,0.3,8.1,0.3,8.2c0,1,0.2,1.9,0.5,2.7C0.9,11,1,11,1.1,11l1.4-0.6
			c0.1,0,0.2,0,0.2,0.1c0.3,0.6,0.7,1.2,1.1,1.7c0.1,0.1,0.1,0.2,0,0.2l-1.1,1.1c-0.1,0.1-0.1,0.2,0,0.3c0.7,0.6,1.4,1.2,2.3,1.5
			c0.1,0,0.2,0,0.2-0.1l0.6-1.4c0-0.1,0.1-0.1,0.2-0.1c0.6,0.2,1.3,0.4,2,0.4c0.1,0,0.2,0.1,0.2,0.2v1.5c0,0.1,0.1,0.2,0.2,0.2
			c1,0,1.9-0.2,2.7-0.5c0.1,0,0.1-0.1,0.1-0.2l-0.6-1.4c0-0.1,0-0.2,0.1-0.2c0.6-0.3,1.2-0.7,1.7-1.1c0.1-0.1,0.2-0.1,0.2,0l1.1,1.1
			c0.1,0.1,0.2,0.1,0.3,0c0.6-0.7,1.2-1.4,1.5-2.3c0-0.1,0-0.2-0.1-0.2l-2.7-1.1c-0.8,1.8-2.6,3.1-4.7,3c-2.6,0-4.8-2.2-4.8-4.9
			c0-2.8,2.2-5,4.9-5V0.2C8.3,0.1,8.2,0,8.1,0z"/>
	</g>
</g>
</svg>
