<?xml version="1.0" encoding="utf-8"?>
<!-- Generator: Adobe Illustrator 21.0.0, SVG Export Plug-In . SVG Version: 6.00 Build 0)  -->
<svg version="1.1" id="Layer_1" xmlns="http://www.w3.org/2000/svg" xmlns:xlink="http://www.w3.org/1999/xlink" x="0px" y="0px"
	 viewBox="0 0 222 214" style="enable-background:new 0 0 222 214;" xml:space="preserve">
<style type="text/css">
	.st0{fill:#AAB3C3;}
	.st1{fill:#2A4069;}
	.st2{fill:#FAC864;}
	.st3{fill:#0F1F39;}
	.st4{font-family:'Carlito';}
	.st5{font-size:20.3479px;}
</style>
<g>
	<rect x="38.2" y="42.9" class="st0" width="171.4" height="1"/>
	<rect x="38.2" y="17.5" class="st0" width="171.4" height="1"/>
	<rect x="38.2" y="68.3" class="st0" width="171.4" height="1"/>
	<rect x="38.2" y="93.8" class="st0" width="171.4" height="1"/>
	<rect x="38.2" y="119.2" class="st0" width="171.4" height="1"/>
	<rect x="38.2" y="144.6" class="st0" width="171.4" height="1"/>
	<rect x="38.2" y="195.5" class="st0" width="171.4" height="1"/>
	
		<rect x="-44.7" y="106.5" transform="matrix(4.082696e-11 -1 1 4.082696e-11 -62.202 151.796)" class="st0" width="179.1" height="1"/>
	<path class="st1" d="M123.7,118.5c-9.2,0-15.4-1.6-18.5-4.8c-10.6-10.6-13-59.7-13.5-80.3c0-1.1-0.9-2-2-2H44.3v-4.1h45.4
		c3.3,0,6,2.6,6.1,5.9c0.8,32.4,4.5,69.7,12.3,77.6c11.1,11.1,76.6-6.2,101-13.7l1.2,3.9c-0.2,0.1-22.5,7-46.3,12
		C146.9,116.7,133.5,118.5,123.7,118.5z"/>
	<path class="st2" d="M133.6,92.2c-14.7,0-26.8-1.4-31-5.6c-10.4-10.4-11.2-42-11.1-55.1c0-0.5-0.2-1.1-0.6-1.4
		c-0.4-0.4-0.9-0.6-1.5-0.6H44.3v-4.1h45.2c1.6,0,3.2,0.6,4.3,1.8c1.2,1.2,1.8,2.7,1.8,4.3c-0.1,9.8,0.4,42.6,9.9,52.2
		c8.4,8.4,66.7,3.2,103.8-2.4l0.6,4C203.5,86.3,163.3,92.2,133.6,92.2z"/>
	<text transform="matrix(1 0 0 1 20.3125 201.7441)" class="st3 st4 st5">0</text>
	<text transform="matrix(1 0 0 1 10 176.3105)" class="st3 st4 st5">10</text>
	<text transform="matrix(1 0 0 1 10 150.8755)" class="st3 st4 st5">20</text>
	<text transform="matrix(1 0 0 1 10 125.4429)" class="st3 st4 st5">30</text>
	<text transform="matrix(1 0 0 1 10 100.0073)" class="st3 st4 st5">40</text>
	<text transform="matrix(1 0 0 1 10 74.5708)" class="st3 st4 st5">50</text>
	<text transform="matrix(1 0 0 1 10 49.1362)" class="st3 st4 st5">60</text>
	<text transform="matrix(1 0 0 1 10 23.7017)" class="st3 st4 st5">70</text>
</g>
</svg>
