<?xml version="1.0" encoding="utf-8"?>
<!-- Generator: Adobe Illustrator 21.0.0, SVG Export Plug-In . SVG Version: 6.00 Build 0)  -->
<svg version="1.1" id="Layer_1" xmlns="http://www.w3.org/2000/svg" xmlns:xlink="http://www.w3.org/1999/xlink" x="0px" y="0px"
	 viewBox="0 0 1360 370" style="enable-background:new 0 0 1360 370;" xml:space="preserve">
<style type="text/css">
	.st0{fill:#7B9DD0;}
	.st1{fill:#FFFFFF;}
	.st2{fill:#0F1F39;}
</style>
<g>
	<g>
		<path class="st0" d="M279.3,179.5c-2.8-49.9-44.1-89.5-94.6-89.5S93,129.6,90.2,179.5H279.3z"/>
		<path class="st0" d="M90.2,190.5c2.8,49.9,44.1,89.5,94.6,89.5s91.7-39.6,94.6-89.5H90.2z"/>
		<rect x="167.8" y="229.3" class="st1" width="34" height="4"/>
		<polygon class="st1" points="201.8,134.7 186.8,134.7 186.8,119.7 182.8,119.7 182.8,134.7 167.8,134.7 167.8,138.7 182.8,138.7 
			182.8,153.7 186.8,153.7 186.8,138.7 201.8,138.7 		"/>
		<path class="st2" d="M180.6,5c-21.5,0.5-42,4.7-61,12.1c-2.1,0.8-3.1,3.2-2.3,5.3l13.2,31.9c0.8,2-0.1,4.3-2,5.2
			c-14.1,6.3-27,14.9-38.3,25.6c-1.6,1.5-4,1.4-5.6-0.1L60.4,60.6c-1.6-1.6-4.2-1.5-5.7,0.1c-14.3,15-26.1,32.4-34.6,51.6
			c-0.9,2.1,0,4.5,2.1,5.3l31.9,13.2c2,0.8,3,3.1,2.2,5.1c-5.5,14.4-8.5,29.7-9,45.1c-0.1,2.2-1.8,3.9-4,3.9H8.8
			c-2.3,0-4.1,1.9-4,4.1c0.5,21.5,4.7,42,12.1,61c0.8,2.1,3.2,3.1,5.3,2.3l31.9-13.2c2-0.8,4.3,0.1,5.2,2
			c6.3,14.1,14.9,27,25.6,38.3c1.5,1.6,1.4,4-0.1,5.6l-24.4,24.4c-1.6,1.6-1.5,4.2,0.1,5.7c15,14.3,32.4,26.1,51.6,34.6
			c2.1,0.9,4.5,0,5.3-2.1l13.2-31.9c0.8-2,3.1-3,5.1-2.2c14.4,5.5,29.7,8.5,45.1,9c2.2,0.1,3.9,1.8,3.9,4V361c0,2.3,1.9,4.1,4.1,4
			c21.5-0.5,42-4.7,61-12.1c2.1-0.8,3.1-3.2,2.3-5.3l-13.2-31.9c-0.8-2,0.1-4.3,2-5.2c14.1-6.3,27-14.9,38.3-25.6
			c1.6-1.5,4-1.4,5.6,0.1l24.4,24.4c1.6,1.6,4.2,1.5,5.7-0.1c14.3-15,26.1-32.4,34.6-51.6c0.9-2.1,0-4.5-2.1-5.3l-60-24.9
			c-16.9,40.8-57.5,69.4-104.7,68.5c-59.6-1.1-108-49.8-108.9-109.4c-0.9-62,49.2-112.6,111-112.6V9C184.8,6.8,182.9,5,180.6,5z"/>
	</g>
	<g>
		<path class="st2" d="M586,117.6v21.7h-36.4v113.1H523V139.3h-36.4v-21.7H586z"/>
		<path class="st2" d="M629.9,150c6.4,0,12.2,1,17.6,3.1c5.3,2.1,10,5,13.8,8.9c3.9,3.9,6.9,8.7,9,14.4c2.2,5.7,3.2,12.2,3.2,19.5
			c0,2-0.1,3.6-0.3,4.8c-0.2,1.3-0.5,2.3-1,3c-0.4,0.7-1.1,1.3-1.8,1.6c-0.8,0.3-1.7,0.5-2.9,0.5h-60.3c0.4,4.9,1.3,9.1,2.6,12.7
			c1.4,3.6,3.1,6.5,5.4,8.8c2.2,2.3,4.9,4,7.9,5.1s6.4,1.7,10.2,1.7c3.7,0,7-0.5,9.7-1.4s5.1-1.9,7.2-2.9c2.1-1,3.9-2,5.5-2.9
			s3.2-1.4,4.8-1.4c1.9,0,3.5,0.8,4.7,2.3l7.4,9.5c-2.8,3.2-5.9,5.9-9.2,8.1c-3.4,2.1-6.9,3.8-10.5,5.1c-3.6,1.3-7.3,2.1-11,2.7
			c-3.7,0.5-7.3,0.8-10.8,0.8c-7,0-13.5-1.2-19.5-3.5c-6-2.3-11.3-5.7-15.7-10.3s-8-10.2-10.5-17c-2.5-6.7-3.8-14.5-3.8-23.4
			c0-6.8,1.1-13.3,3.4-19.3c2.2-6.1,5.4-11.3,9.6-15.8c4.2-4.5,9.2-8.1,15.2-10.7C615.6,151.3,622.3,150,629.9,150z M630.4,168.4
			c-6.6,0-11.7,1.9-15.4,5.7c-3.7,3.8-6.1,9.2-7.2,16.2h42.7c0-2.9-0.4-5.7-1.2-8.3c-0.8-2.6-2-5-3.7-7c-1.7-2-3.7-3.6-6.2-4.8
			C636.8,169,633.8,168.4,630.4,168.4z"/>
		<path class="st2" d="M713.2,200.5l-28-48.9H710c1.8,0,3.2,0.3,4,0.8c0.8,0.5,1.6,1.3,2.3,2.5l15.9,30.9c0.3-0.8,0.7-1.6,1.1-2.5
			c0.4-0.8,0.9-1.7,1.4-2.6l11-25.4c1.5-2.4,3.4-3.7,5.7-3.7h23.7l-28.1,47.5l29.4,53.3h-24.8c-1.8,0-3.3-0.5-4.5-1.5
			c-1.2-1-2.1-2-2.7-3.2l-16-32c-0.3,0.7-0.6,1.5-0.9,2.1c-0.3,0.7-0.6,1.3-1,1.8l-12.7,28c-0.7,1.2-1.6,2.2-2.7,3.2
			c-1.1,1-2.4,1.5-4.1,1.5h-23L713.2,200.5z"/>
		<path class="st2" d="M882.9,151.6v100.9h-25.8v-44.1h-36.7v44.1h-25.8V151.6h25.8v37.8h36.7v-37.8H882.9z"/>
		<path class="st2" d="M955.8,150c7.4,0,14.1,1.2,20.2,3.6c6.1,2.4,11.3,5.9,15.6,10.4c4.3,4.5,7.7,10,10.1,16.4
			c2.4,6.4,3.6,13.6,3.6,21.5c0,8.1-1.2,15.3-3.6,21.7c-2.4,6.4-5.7,11.9-10.1,16.4c-4.3,4.5-9.5,8-15.6,10.4s-12.8,3.7-20.2,3.7
			c-7.4,0-14.2-1.2-20.4-3.7c-6.1-2.4-11.4-5.9-15.7-10.4c-4.4-4.5-7.7-10-10.1-16.4c-2.4-6.4-3.6-13.7-3.6-21.7
			c0-7.9,1.2-15.1,3.6-21.5c2.4-6.4,5.7-11.8,10.1-16.4c4.4-4.5,9.6-8,15.7-10.4C941.5,151.2,948.3,150,955.8,150z M955.8,234.3
			c7.8,0,13.5-2.7,17.3-8.2c3.7-5.4,5.6-13.5,5.6-24.1c0-10.6-1.9-18.7-5.6-24.1c-3.7-5.4-9.5-8.2-17.3-8.2
			c-7.9,0-13.8,2.7-17.5,8.2c-3.8,5.5-5.6,13.5-5.6,24.1c0,10.6,1.9,18.7,5.6,24.1C942,231.6,947.8,234.3,955.8,234.3z"/>
		<path class="st2" d="M1052.8,173.6h10.4c2.1,0,3.9-0.4,5.5-1.3c1.6-0.8,3-2.5,4.3-4.8l22.6-42.9c1.3-2,2.8-3.7,4.5-5s3.8-2,6.2-2
			h22.9l-29.9,53.8c-1.4,2.4-3.1,4.3-5.1,5.8c-2,1.5-4.1,2.8-6.5,3.7c3.7,1.1,6.9,2.8,9.4,5.1s5,5.6,7.4,9.7l27.7,56.7H1108
			c-2.4,0-4.4-0.7-6-2c-1.7-1.3-3.2-3.2-4.7-5.6l-20.9-44.6c-1.4-2.6-2.9-4.3-4.5-5.2c-1.7-0.9-3.8-1.4-6.3-1.4h-12.6v58.8H1026
			V117.6h26.8V173.6z"/>
		<path class="st2" d="M1190,150c7.4,0,14.1,1.2,20.2,3.6c6.1,2.4,11.3,5.9,15.6,10.4c4.3,4.5,7.7,10,10.1,16.4
			c2.4,6.4,3.6,13.6,3.6,21.5c0,8.1-1.2,15.3-3.6,21.7c-2.4,6.4-5.7,11.9-10.1,16.4c-4.3,4.5-9.5,8-15.6,10.4s-12.8,3.7-20.2,3.7
			c-7.4,0-14.2-1.2-20.4-3.7c-6.1-2.4-11.4-5.9-15.7-10.4c-4.4-4.5-7.7-10-10.1-16.4c-2.4-6.4-3.6-13.7-3.6-21.7
			c0-7.9,1.2-15.1,3.6-21.5c2.4-6.4,5.7-11.8,10.1-16.4c4.4-4.5,9.6-8,15.7-10.4C1175.8,151.2,1182.6,150,1190,150z M1190,234.3
			c7.8,0,13.5-2.7,17.3-8.2c3.7-5.4,5.6-13.5,5.6-24.1c0-10.6-1.9-18.7-5.6-24.1c-3.7-5.4-9.5-8.2-17.3-8.2
			c-7.9,0-13.8,2.7-17.5,8.2c-3.8,5.5-5.6,13.5-5.6,24.1c0,10.6,1.9,18.7,5.6,24.1C1176.3,231.6,1182.1,234.3,1190,234.3z"/>
		<path class="st2" d="M1262.5,285.2V151.6h15.8c1.6,0,3,0.4,4.1,1.1c1.1,0.7,1.8,1.9,2.2,3.5l2.1,8.8c2-2.2,4.2-4.3,6.4-6.2
			c2.2-1.9,4.7-3.5,7.3-4.9c2.6-1.4,5.4-2.4,8.4-3.1c3-0.7,6.3-1.1,9.8-1.1c5.3,0,10.3,1.2,14.7,3.5c4.5,2.3,8.3,5.6,11.6,10
			s5.8,9.8,7.6,16.2c1.8,6.4,2.7,13.7,2.7,21.9c0,7.5-1,14.5-3,20.9c-2,6.4-4.9,12-8.6,16.7c-3.7,4.7-8.2,8.4-13.5,11.1
			c-5.2,2.7-11.1,4-17.6,4c-5.5,0-10.1-0.8-13.9-2.5c-3.8-1.7-7.2-3.9-10.3-6.8v40.4H1262.5z M1309.8,170.1c-4.8,0-8.9,1-12.2,2.9
			c-3.3,1.9-6.4,4.7-9.3,8.4v44.7c2.6,3.1,5.4,5.3,8.4,6.6c3,1.3,6.2,1.9,9.7,1.9c3.3,0,6.3-0.7,9.1-2s5.1-3.3,7.1-6
			c2-2.7,3.5-6.1,4.5-10.3c1-4.2,1.6-9.1,1.6-14.9c0-5.7-0.4-10.5-1.3-14.5c-0.9-4-2.1-7.2-3.8-9.6c-1.6-2.5-3.6-4.3-5.9-5.4
			C1315.3,170.7,1312.7,170.1,1309.8,170.1z"/>
	</g>
</g>
<rect x="472.1" y="-518.4" class="st2" width="135" height="135"/>
</svg>
