<?xml version="1.0" encoding="utf-8"?>
<!-- Generator: Adobe Illustrator 21.0.0, SVG Export Plug-In . SVG Version: 6.00 Build 0)  -->
<svg version="1.1" id="Layer_1" xmlns="http://www.w3.org/2000/svg" xmlns:xlink="http://www.w3.org/1999/xlink" x="0px" y="0px"
	 viewBox="0 0 1360 370" style="enable-background:new 0 0 1360 370;" xml:space="preserve">
<style type="text/css">
	.st0{fill:#7B9DD0;}
	.st1{fill:#FFFFFF;}
	.st2{fill:#0F1F39;}
	.st3{font-family:'Carlito-Bold';}
	.st4{font-size:199.0331px;}
</style>
<g>
	<g>
		<path class="st0" d="M279.3,179.5c-2.8-49.9-44.1-89.5-94.6-89.5S93,129.6,90.2,179.5H279.3z"/>
		<path class="st0" d="M90.2,190.5c2.8,49.9,44.1,89.5,94.6,89.5s91.7-39.6,94.6-89.5H90.2z"/>
		<rect x="167.8" y="229.3" class="st1" width="34" height="4"/>
		<polygon class="st1" points="201.8,134.7 186.8,134.7 186.8,119.7 182.8,119.7 182.8,134.7 167.8,134.7 167.8,138.7 182.8,138.7 
			182.8,153.7 186.8,153.7 186.8,138.7 201.8,138.7 		"/>
		<path class="st2" d="M180.6,5c-21.5,0.5-42,4.7-61,12.1c-2.1,0.8-3.1,3.2-2.3,5.3l13.2,31.9c0.8,2-0.1,4.3-2,5.2
			c-14.1,6.3-27,14.9-38.3,25.6c-1.6,1.5-4,1.4-5.6-0.1L60.4,60.6c-1.6-1.6-4.2-1.5-5.7,0.1c-14.3,15-26.1,32.4-34.6,51.6
			c-0.9,2.1,0,4.5,2.1,5.3l31.9,13.2c2,0.8,3,3.1,2.2,5.1c-5.5,14.4-8.5,29.7-9,45.1c-0.1,2.2-1.8,3.9-4,3.9H8.8
			c-2.3,0-4.1,1.9-4,4.1c0.5,21.5,4.7,42,12.1,61c0.8,2.1,3.2,3.1,5.3,2.3l31.9-13.2c2-0.8,4.3,0.1,5.2,2
			c6.3,14.1,14.9,27,25.6,38.3c1.5,1.6,1.4,4-0.1,5.6l-24.4,24.4c-1.6,1.6-1.5,4.2,0.1,5.7c15,14.3,32.4,26.1,51.6,34.6
			c2.1,0.9,4.5,0,5.3-2.1l13.2-31.9c0.8-2,3.1-3,5.1-2.2c14.4,5.5,29.7,8.5,45.1,9c2.2,0.1,3.9,1.8,3.9,4V361c0,2.3,1.9,4.1,4.1,4
			c21.5-0.5,42-4.7,61-12.1c2.1-0.8,3.1-3.2,2.3-5.3l-13.2-31.9c-0.8-2,0.1-4.3,2-5.2c14.1-6.3,27-14.9,38.3-25.6
			c1.6-1.5,4-1.4,5.6,0.1l24.4,24.4c1.6,1.6,4.2,1.5,5.7-0.1c14.3-15,26.1-32.4,34.6-51.6c0.9-2.1,0-4.5-2.1-5.3l-60-24.9
			c-16.9,40.8-57.5,69.4-104.7,68.5c-59.6-1.1-108-49.8-108.9-109.4c-0.9-62,49.2-112.6,111-112.6V9C184.8,6.8,182.9,5,180.6,5z"/>
	</g>
</g>
<rect x="472.1" y="-518.4" class="st2" width="135" height="135"/>
<text transform="matrix(1 0 0 1 486.6539 249.7705)" class="st2 st3 st4">TechnoCor</text>
</svg>
