<?xml version="1.0" encoding="utf-8"?>
<!-- Generator: Adobe Illustrator 21.0.0, SVG Export Plug-In . SVG Version: 6.00 Build 0)  -->
<svg version="1.1" id="Layer_1" xmlns="http://www.w3.org/2000/svg" xmlns:xlink="http://www.w3.org/1999/xlink" x="0px" y="0px"
	 viewBox="0 0 1360 370" style="enable-background:new 0 0 1360 370;" xml:space="preserve">
<style type="text/css">
	.st0{fill:#7B9DD0;}
	.st1{fill:#FFFFFF;}
	.st2{fill:#0F1F39;}
	.st3{enable-background:new    ;}
</style>
<g>
	<g>
		<path class="st0" d="M279.3,179.5c-2.8-49.9-44.1-89.5-94.6-89.5S93,129.6,90.2,179.5H279.3z"/>
		<path class="st0" d="M90.2,190.5c2.8,49.9,44.1,89.5,94.6,89.5s91.7-39.6,94.6-89.5H90.2z"/>
		<rect x="167.8" y="229.3" class="st1" width="34" height="4"/>
		<polygon class="st1" points="201.8,134.7 186.8,134.7 186.8,119.7 182.8,119.7 182.8,134.7 167.8,134.7 167.8,138.7 182.8,138.7 
			182.8,153.7 186.8,153.7 186.8,138.7 201.8,138.7 		"/>
		<path class="st2" d="M180.6,5c-21.5,0.5-42,4.7-61,12.1c-2.1,0.8-3.1,3.2-2.3,5.3l13.2,31.9c0.8,2-0.1,4.3-2,5.2
			c-14.1,6.3-27,14.9-38.3,25.6c-1.6,1.5-4,1.4-5.6-0.1L60.4,60.6c-1.6-1.6-4.2-1.5-5.7,0.1c-14.3,15-26.1,32.4-34.6,51.6
			c-0.9,2.1,0,4.5,2.1,5.3l31.9,13.2c2,0.8,3,3.1,2.2,5.1c-5.5,14.4-8.5,29.7-9,45.1c-0.1,2.2-1.8,3.9-4,3.9H8.8
			c-2.3,0-4.1,1.9-4,4.1c0.5,21.5,4.7,42,12.1,61c0.8,2.1,3.2,3.1,5.3,2.3l31.9-13.2c2-0.8,4.3,0.1,5.2,2
			c6.3,14.1,14.9,27,25.6,38.3c1.5,1.6,1.4,4-0.1,5.6l-24.4,24.4c-1.6,1.6-1.5,4.2,0.1,5.7c15,14.3,32.4,26.1,51.6,34.6
			c2.1,0.9,4.5,0,5.3-2.1l13.2-31.9c0.8-2,3.1-3,5.1-2.2c14.4,5.5,29.7,8.5,45.1,9c2.2,0.1,3.9,1.8,3.9,4V361c0,2.3,1.9,4.1,4.1,4
			c21.5-0.5,42-4.7,61-12.1c2.1-0.8,3.1-3.2,2.3-5.3l-13.2-31.9c-0.8-2,0.1-4.3,2-5.2c14.1-6.3,27-14.9,38.3-25.6
			c1.6-1.5,4-1.4,5.6,0.1l24.4,24.4c1.6,1.6,4.2,1.5,5.7-0.1c14.3-15,26.1-32.4,34.6-51.6c0.9-2.1,0-4.5-2.1-5.3l-60-24.9
			c-16.9,40.8-57.5,69.4-104.7,68.5c-59.6-1.1-108-49.8-108.9-109.4C72.9,124.6,123,74,184.8,74V9C184.8,6.8,182.9,5,180.6,5z"/>
	</g>
</g>
<rect x="472.1" y="-518.4" class="st2" width="135" height="135"/>
<g class="st3">
	<path class="st2" d="M573.9,118v20.8h-34.8v108.3h-25.5V138.8h-34.8V118H573.9z"/>
	<path class="st2" d="M612.5,149c6.1,0,11.7,1,16.8,3c5.1,2,9.5,4.8,13.2,8.6c3.7,3.7,6.6,8.3,8.6,13.8c2.1,5.4,3.1,11.7,3.1,18.7
		c0,1.9-0.1,3.4-0.3,4.6c-0.2,1.2-0.5,2.2-0.9,2.9c-0.4,0.7-1,1.2-1.8,1.5c-0.7,0.3-1.7,0.4-2.8,0.4h-57.7c0.4,4.7,1.2,8.7,2.5,12.1
		c1.3,3.4,3,6.3,5.2,8.5c2.1,2.2,4.7,3.8,7.6,4.9c2.9,1.1,6.2,1.6,9.7,1.6c3.6,0,6.7-0.4,9.3-1.3s4.9-1.8,6.9-2.8
		c2-1,3.7-1.9,5.3-2.8s3.1-1.3,4.6-1.3c1.8,0,3.3,0.7,4.5,2.2l7.1,9.1c-2.7,3.1-5.6,5.7-8.8,7.7c-3.2,2-6.6,3.7-10.1,4.9
		c-3.5,1.2-7,2.1-10.5,2.6c-3.6,0.5-7,0.8-10.3,0.8c-6.7,0-12.9-1.1-18.7-3.3c-5.8-2.2-10.8-5.5-15.1-9.9
		c-4.3-4.4-7.6-9.8-10.1-16.2c-2.4-6.4-3.6-13.9-3.6-22.4c0-6.5,1.1-12.7,3.2-18.5c2.1-5.8,5.2-10.9,9.2-15.2
		c4-4.3,8.8-7.7,14.5-10.3C598.8,150.3,605.3,149,612.5,149z M612.9,166.6c-6.3,0-11.2,1.8-14.8,5.5c-3.6,3.7-5.9,8.8-6.9,15.5h40.8
		c0-2.8-0.4-5.4-1.1-8c-0.7-2.5-1.9-4.8-3.5-6.7c-1.6-1.9-3.6-3.5-6-4.6C619.1,167.2,616.2,166.6,612.9,166.6z"/>
	<path class="st2" d="M735.8,171.7c-0.7,0.9-1.4,1.6-2.1,2.2c-0.7,0.6-1.7,0.8-3,0.8c-1.2,0-2.4-0.4-3.4-1.1c-1-0.7-2.2-1.5-3.5-2.4
		c-1.3-0.9-2.9-1.7-4.7-2.4c-1.8-0.7-4-1.1-6.8-1.1c-3.4,0-6.3,0.7-8.8,2.1c-2.5,1.4-4.6,3.5-6.2,6.1c-1.6,2.7-2.8,5.9-3.6,9.7
		c-0.8,3.8-1.2,8.1-1.2,12.8c0,10,1.7,17.8,5.2,23.2c3.4,5.4,8.2,8.1,14.2,8.1c3.2,0,5.7-0.5,7.6-1.4c1.9-0.9,3.5-1.9,4.8-3
		c1.3-1.1,2.5-2.1,3.5-3c1.1-0.9,2.3-1.4,3.8-1.4c1.9,0,3.3,0.7,4.4,2.2l7.2,9.1c-2.6,3.1-5.3,5.7-8.3,7.7c-2.9,2-5.9,3.7-9,4.9
		c-3.1,1.2-6.2,2.1-9.3,2.6c-3.1,0.5-6.2,0.7-9.3,0.7c-5.4,0-10.6-1.1-15.4-3.4c-4.8-2.2-9.1-5.5-12.7-9.8
		c-3.7-4.3-6.6-9.5-8.7-15.7c-2.1-6.2-3.2-13.2-3.2-21.1c0-7.1,0.9-13.6,2.8-19.6c1.9-6,4.6-11.3,8.3-15.7
		c3.7-4.4,8.2-7.9,13.6-10.4c5.4-2.5,11.7-3.8,18.8-3.8c6.7,0,12.7,1.2,17.8,3.5c5.1,2.4,9.7,5.8,13.8,10.3L735.8,171.7z"/>
	<path class="st2" d="M758.9,247.1V107.4h24.7v52.9c3.7-3.4,7.7-6.1,12-8.2c4.3-2.1,9.4-3.1,15.4-3.1c5.2,0,9.9,0.9,13.9,2.7
		c4,1.8,7.4,4.3,10.1,7.6c2.7,3.2,4.8,7.1,6.2,11.6c1.4,4.5,2.1,9.4,2.1,14.7v61.4h-24.7v-61.4c0-5.5-1.3-9.8-3.8-12.8
		c-2.5-3-6.3-4.6-11.4-4.6c-3.8,0-7.3,0.8-10.5,2.4c-3.3,1.6-6.4,3.9-9.3,6.8v69.6H758.9z"/>
	<path class="st2" d="M867.2,247.1v-96.5h15.2c1.6,0,2.9,0.4,3.9,1.1c1.1,0.7,1.8,1.8,2.1,3.3l1.7,7.1c1.9-1.9,4-3.7,6-5.3
		c2.1-1.6,4.3-2.9,6.7-4.1c2.4-1.1,4.9-2,7.6-2.7c2.7-0.6,5.7-1,8.9-1c5.2,0,9.9,0.9,13.9,2.7c4,1.8,7.4,4.3,10.1,7.6
		c2.7,3.2,4.8,7.1,6.2,11.6c1.4,4.5,2.1,9.4,2.1,14.7v61.4h-24.7v-61.4c0-5.5-1.3-9.8-3.8-12.8c-2.5-3-6.3-4.6-11.4-4.6
		c-3.8,0-7.3,0.8-10.5,2.4c-3.3,1.6-6.4,3.9-9.3,6.8v69.6H867.2z"/>
	<path class="st2" d="M1017.2,149c7.1,0,13.5,1.2,19.3,3.4c5.8,2.3,10.8,5.6,15,9.9c4.1,4.3,7.4,9.5,9.6,15.6
		c2.3,6.1,3.4,13,3.4,20.6c0,7.7-1.1,14.6-3.4,20.8c-2.3,6.2-5.5,11.4-9.6,15.7c-4.1,4.3-9.1,7.6-15,10c-5.8,2.3-12.3,3.5-19.3,3.5
		c-7.1,0-13.6-1.2-19.5-3.5c-5.9-2.3-10.9-5.7-15.1-10c-4.2-4.3-7.4-9.5-9.7-15.7c-2.3-6.2-3.4-13.1-3.4-20.8
		c0-7.6,1.1-14.4,3.4-20.6c2.3-6.1,5.5-11.3,9.7-15.6c4.2-4.3,9.2-7.6,15.1-9.9C1003.6,150.2,1010.1,149,1017.2,149z M1017.2,229.7
		c7.5,0,13-2.6,16.5-7.8c3.6-5.2,5.3-12.9,5.3-23.1c0-10.2-1.8-17.9-5.3-23.1c-3.6-5.2-9.1-7.8-16.5-7.8c-7.6,0-13.2,2.6-16.8,7.8
		c-3.6,5.2-5.4,12.9-5.4,23.1c0,10.2,1.8,17.9,5.4,23.1C1004,227.1,1009.6,229.7,1017.2,229.7z"/>
	<path class="st2" d="M1161.7,215.8c1.4,0,2.5,0.5,3.5,1.6l10.2,11c-4.7,6.5-10.5,11.5-17.5,15c-7,3.4-15.4,5.2-25,5.2
		c-8.7,0-16.6-1.6-23.6-4.9c-7-3.3-12.9-7.8-17.8-13.7c-4.9-5.9-8.6-12.8-11.3-20.9s-3.9-16.9-3.9-26.5c0-9.7,1.4-18.5,4.2-26.6
		c2.8-8.1,6.8-15,11.9-20.8s11.2-10.4,18.4-13.6c7.1-3.2,15-4.9,23.5-4.9c8.7,0,16.4,1.5,23,4.6c6.7,3.1,12.2,7.1,16.7,12.2l-8.6,12
		c-0.6,0.7-1.2,1.4-2,1.9c-0.7,0.6-1.8,0.9-3.2,0.9c-1.4,0-2.7-0.5-3.9-1.6c-1.3-1-2.8-2.2-4.7-3.4c-1.8-1.2-4.2-2.4-6.9-3.4
		c-2.8-1-6.4-1.6-10.7-1.6c-4.7,0-9,1-12.9,3c-3.9,2-7.2,4.9-10,8.6c-2.8,3.8-4.9,8.4-6.5,13.9c-1.5,5.5-2.3,11.7-2.3,18.7
		c0,7.1,0.8,13.3,2.5,18.9c1.7,5.5,4,10.2,6.9,13.9c2.9,3.8,6.3,6.7,10.2,8.6c3.9,2,8.1,3,12.5,3c2.7,0,5.1-0.1,7.2-0.4
		c2.1-0.3,4.1-0.8,6-1.6c1.8-0.7,3.6-1.7,5.2-2.9c1.6-1.2,3.2-2.6,4.9-4.4c0.6-0.5,1.3-1,2-1.3C1160.3,216,1161,215.8,1161.7,215.8z
		"/>
	<path class="st2" d="M1232.7,149c7.1,0,13.5,1.2,19.3,3.4c5.8,2.3,10.8,5.6,15,9.9c4.1,4.3,7.4,9.5,9.6,15.6
		c2.3,6.1,3.4,13,3.4,20.6c0,7.7-1.1,14.6-3.4,20.8c-2.3,6.2-5.5,11.4-9.6,15.7c-4.1,4.3-9.1,7.6-15,10c-5.8,2.3-12.3,3.5-19.3,3.5
		c-7.1,0-13.6-1.2-19.5-3.5c-5.9-2.3-10.9-5.7-15.1-10c-4.2-4.3-7.4-9.5-9.7-15.7c-2.3-6.2-3.4-13.1-3.4-20.8
		c0-7.6,1.1-14.4,3.4-20.6c2.3-6.1,5.5-11.3,9.7-15.6c4.2-4.3,9.2-7.6,15.1-9.9C1219.1,150.2,1225.6,149,1232.7,149z M1232.7,229.7
		c7.5,0,13-2.6,16.5-7.8c3.6-5.2,5.3-12.9,5.3-23.1c0-10.2-1.8-17.9-5.3-23.1c-3.6-5.2-9.1-7.8-16.5-7.8c-7.6,0-13.2,2.6-16.8,7.8
		c-3.6,5.2-5.4,12.9-5.4,23.1c0,10.2,1.8,17.9,5.4,23.1C1219.5,227.1,1225.1,229.7,1232.7,229.7z"/>
	<path class="st2" d="M1298.3,247.1v-96.5h14.5c2.5,0,4.3,0.5,5.3,1.4c1,0.9,1.7,2.5,2,4.8l1.3,9.8c2.9-5.5,6.3-9.8,10.2-13
		c3.9-3.2,8.4-4.8,13.5-4.8c4.2,0,7.7,1,10.4,3l-1.8,18.5c-0.1,1.2-0.5,2-1.2,2.5c-0.6,0.5-1.5,0.7-2.6,0.7c-1,0-2.4-0.1-4.2-0.4
		c-1.8-0.3-3.5-0.4-5.1-0.4c-2.3,0-4.3,0.3-6.1,1c-1.8,0.6-3.4,1.6-4.8,2.9c-1.4,1.3-2.6,2.8-3.7,4.6c-1.1,1.8-2.1,3.9-3,6.2v59.9
		H1298.3z"/>
</g>
</svg>
